<svg width="20" height="20" viewBox="0 0 20 20" fill="none" xmlns="http://www.w3.org/2000/svg">
<path d="M10.0004 11.8084C8.22539 11.8084 6.77539 10.3667 6.77539 8.58337C6.77539 6.80003 8.22539 5.3667 10.0004 5.3667C11.7754 5.3667 13.2254 6.80837 13.2254 8.5917C13.2254 10.375 11.7754 11.8084 10.0004 11.8084ZM10.0004 6.6167C8.91706 6.6167 8.02539 7.50003 8.02539 8.5917C8.02539 9.68337 8.90872 10.5667 10.0004 10.5667C11.0921 10.5667 11.9754 9.68337 11.9754 8.5917C11.9754 7.50003 11.0837 6.6167 10.0004 6.6167Z" fill="#737880"/>
<path d="M10.0004 18.9666C8.76706 18.9666 7.52539 18.5 6.55872 17.575C4.10039 15.2083 1.38372 11.4333 2.40872 6.94163C3.33372 2.86663 6.89206 1.04163 10.0004 1.04163C10.0004 1.04163 10.0004 1.04163 10.0087 1.04163C13.1171 1.04163 16.6754 2.86663 17.6004 6.94996C18.6171 11.4416 15.9004 15.2083 13.4421 17.575C12.4754 18.5 11.2337 18.9666 10.0004 18.9666ZM10.0004 2.29163C7.57539 2.29163 4.45872 3.58329 3.63372 7.21663C2.73372 11.1416 5.20039 14.525 7.43372 16.6666C8.87539 18.0583 11.1337 18.0583 12.5754 16.6666C14.8004 14.525 17.2671 11.1416 16.3837 7.21663C15.5504 3.58329 12.4254 2.29163 10.0004 2.29163Z" fill="#737880"/>
</svg>
